<svg width="18" height="19" viewBox="0 0 18 19" fill="none" xmlns="http://www.w3.org/2000/svg">
<g id="Search icon Outline 1" clip-path="url(#clip0_33_166)">
<path id="Vector" d="M9.02121 17.9584C4.07433 17.9584 0.0419922 13.9261 0.0419922 8.97922C0.0419922 4.03233 4.07433 0 9.02121 0C13.9681 0 18.0004 4.03233 18.0004 8.97922C18.0004 13.9261 13.9681 17.9584 9.02121 17.9584ZM9.02121 1.45497C4.86416 1.45497 1.49696 4.82217 1.49696 8.97922C1.49696 13.1363 4.86416 16.5035 9.02121 16.5035C13.1783 16.5035 16.5455 13.1363 16.5455 8.97922C16.5039 4.86374 13.1367 1.45497 9.02121 1.45497Z" fill="black"/>
<path id="Vector_2" d="M14.9829 14.7354L13.9541 15.7642L17.0111 18.8212L18.0399 17.7924L14.9829 14.7354Z" fill="black"/>
</g>
<defs>
<clipPath id="clip0_33_166">
<rect width="18" height="18.7898" fill="white"/>
</clipPath>
</defs>
</svg>
