<svg width="23" height="20" viewBox="0 0 23 20" fill="none" xmlns="http://www.w3.org/2000/svg">
<path id="Vector" d="M11.5 20L11.0941 19.6633C2.36765 12.5926 0 10.101 0 6.06061C0 2.6936 2.70588 0 6.08823 0C8.86176 0 10.4176 1.54882 11.5 2.76094C12.5824 1.54882 14.1382 0 16.9118 0C20.2941 0 23 2.6936 23 6.06061C23 10.101 20.6324 12.5926 11.9059 19.6633L11.5 20ZM6.08823 1.3468C3.45 1.3468 1.35294 3.43434 1.35294 6.06061C1.35294 9.49495 3.51765 11.7845 11.5 18.2492C19.4824 11.7845 21.6471 9.49495 21.6471 6.06061C21.6471 3.43434 19.55 1.3468 16.9118 1.3468C14.5441 1.3468 13.2588 2.76094 12.2441 3.90572L11.5 4.78114L10.7559 3.90572C9.74118 2.76094 8.45588 1.3468 6.08823 1.3468Z" fill="black"/>
</svg>
