<svg width="17" height="18" viewBox="0 0 17 18" fill="none" xmlns="http://www.w3.org/2000/svg">
<path id="speaker-on Button" d="M9.45215 0.0148926L4.76465 5.38274H0.0771484V12.5399H4.76465L9.45215 17.9077V0.0148926ZM11.9648 1.56195L11.7373 2.53415C14.2796 3.31416 16.0439 5.94721 16.0439 8.96131C16.0439 11.9754 14.2796 14.6084 11.7373 15.3885L11.9648 16.3607C14.8872 15.464 16.9229 12.4259 16.9229 8.96131C16.9229 5.49664 14.8872 2.45866 11.9648 1.56195ZM11.3582 4.15446L11.1307 5.12665C12.6484 5.59231 13.7002 7.16207 13.7002 8.96131C13.7002 10.7605 12.6484 12.3303 11.1307 12.796L11.3582 13.7682C13.256 13.1858 14.5791 11.2112 14.5791 8.96131C14.5791 6.7114 13.256 4.73681 11.3582 4.15446ZM10.7515 6.74685L10.5241 7.71904C11.0171 7.87041 11.3564 8.37683 11.3564 8.96131C11.3564 9.54579 11.0171 10.0522 10.5241 10.2036L10.7515 11.1758C11.6248 10.9078 12.2354 9.99652 12.2354 8.96131C12.2354 7.92615 11.6248 7.01479 10.7515 6.74685Z" fill="white"/>
</svg>
