<svg width="18" height="18" viewBox="0 0 18 18" fill="none" xmlns="http://www.w3.org/2000/svg">
<path id="&#236;&#157;&#184;&#236;&#138;&#164;&#237;&#131;&#128; &#236;&#149;&#132;&#236;&#157;&#180;&#236;&#189;&#152; White" d="M13.45 3.55008C13.2522 3.55008 13.0588 3.60873 12.8944 3.71861C12.7299 3.82849 12.6018 3.98467 12.5261 4.1674C12.4504 4.35012 12.4306 4.55119 12.4692 4.74517C12.5078 4.93915 12.603 5.11734 12.7429 5.25719C12.8827 5.39704 13.0609 5.49228 13.2549 5.53087C13.4489 5.56945 13.6499 5.54965 13.8326 5.47396C14.0154 5.39827 14.1715 5.2701 14.2814 5.10565C14.3913 4.9412 14.45 4.74786 14.45 4.55008C14.45 4.28486 14.3446 4.03051 14.1571 3.84297C13.9695 3.65544 13.7152 3.55008 13.45 3.55008ZM17.2833 5.56675C17.2671 4.87533 17.1376 4.19125 16.9 3.54175C16.6881 2.98603 16.3583 2.48281 15.9333 2.06675C15.5206 1.6396 15.0163 1.3119 14.4583 1.10841C13.8105 0.863549 13.1257 0.73109 12.4333 0.716748C11.55 0.666748 11.2666 0.666748 8.99996 0.666748C6.73329 0.666748 6.44996 0.666748 5.56663 0.716748C4.87425 0.73109 4.18941 0.863549 3.54163 1.10841C2.98469 1.31396 2.48074 1.64138 2.06663 2.06675C1.63948 2.4794 1.31177 2.98378 1.10829 3.54175C0.863427 4.18953 0.730968 4.87437 0.716626 5.56675C0.666626 6.45008 0.666626 6.73341 0.666626 9.00008C0.666626 11.2667 0.666626 11.5501 0.716626 12.4334C0.730968 13.1258 0.863427 13.8106 1.10829 14.4584C1.31177 15.0164 1.63948 15.5208 2.06663 15.9334C2.48074 16.3588 2.98469 16.6862 3.54163 16.8917C4.18941 17.1366 4.87425 17.2691 5.56663 17.2834C6.44996 17.3334 6.73329 17.3334 8.99996 17.3334C11.2666 17.3334 11.55 17.3334 12.4333 17.2834C13.1257 17.2691 13.8105 17.1366 14.4583 16.8917C15.0163 16.6883 15.5206 16.3606 15.9333 15.9334C16.3602 15.5189 16.6902 15.0152 16.9 14.4584C17.1376 13.8089 17.2671 13.1248 17.2833 12.4334C17.2833 11.5501 17.3333 11.2667 17.3333 9.00008C17.3333 6.73341 17.3333 6.45008 17.2833 5.56675ZM15.7833 12.3334C15.7772 12.8624 15.6814 13.3865 15.5 13.8834C15.3669 14.2461 15.1532 14.5738 14.875 14.8417C14.6047 15.1172 14.2776 15.3304 13.9166 15.4667C13.4197 15.6482 12.8956 15.744 12.3666 15.7501C11.5333 15.7917 11.225 15.8001 9.03329 15.8001C6.84163 15.8001 6.53329 15.8001 5.69996 15.7501C5.1507 15.7604 4.60379 15.6758 4.08329 15.5001C3.73811 15.3568 3.42609 15.1441 3.16663 14.8751C2.89003 14.6074 2.679 14.2794 2.54996 13.9167C2.34651 13.4127 2.23366 12.8767 2.21663 12.3334C2.21663 11.5001 2.16663 11.1917 2.16663 9.00008C2.16663 6.80841 2.16663 6.50008 2.21663 5.66675C2.22036 5.12596 2.31908 4.59004 2.50829 4.08341C2.655 3.73167 2.88018 3.41813 3.16663 3.16675C3.4198 2.88022 3.7327 2.65266 4.08329 2.50008C4.59125 2.31678 5.12662 2.22098 5.66663 2.21675C6.49996 2.21675 6.80829 2.16675 8.99996 2.16675C11.1916 2.16675 11.5 2.16675 12.3333 2.21675C12.8623 2.22282 13.3864 2.31862 13.8833 2.50008C14.262 2.64062 14.6019 2.86912 14.875 3.16675C15.148 3.42273 15.3614 3.73569 15.5 4.08341C15.6852 4.59086 15.781 5.12656 15.7833 5.66675C15.825 6.50008 15.8333 6.80841 15.8333 9.00008C15.8333 11.1917 15.825 11.5001 15.7833 12.3334ZM8.99996 4.72508C8.1548 4.72673 7.32909 4.97885 6.62717 5.4496C5.92525 5.92034 5.37861 6.58858 5.05632 7.36988C4.73403 8.15117 4.65056 9.01047 4.81645 9.83919C4.98235 10.6679 5.39016 11.4289 5.98836 12.0259C6.58656 12.6229 7.3483 13.0293 8.17734 13.1935C9.00638 13.3578 9.86551 13.2727 10.6462 12.9489C11.4269 12.6251 12.094 12.0771 12.5634 11.3743C13.0328 10.6714 13.2833 9.84524 13.2833 9.00008C13.2844 8.43767 13.1743 7.88059 12.9593 7.36088C12.7444 6.84117 12.4288 6.36909 12.0307 5.97179C11.6326 5.57449 11.1599 5.25981 10.6398 5.04586C10.1197 4.8319 9.56237 4.72288 8.99996 4.72508ZM8.99996 11.7751C8.45112 11.7751 7.9146 11.6123 7.45825 11.3074C7.00191 11.0025 6.64623 10.5691 6.43619 10.062C6.22616 9.55496 6.17121 8.997 6.27828 8.45871C6.38535 7.92041 6.64965 7.42595 7.03774 7.03786C7.42583 6.64977 7.92029 6.38548 8.45858 6.2784C8.99688 6.17133 9.55484 6.22628 10.0619 6.43632C10.569 6.64635 11.0024 7.00203 11.3073 7.45837C11.6122 7.91472 11.775 8.45124 11.775 9.00008C11.775 9.3645 11.7032 9.72535 11.5637 10.062C11.4243 10.3987 11.2199 10.7046 10.9622 10.9623C10.7045 11.22 10.3986 11.4244 10.0619 11.5638C9.72523 11.7033 9.36438 11.7751 8.99996 11.7751Z" fill="white"/>
</svg>
