<svg width="32" height="30" viewBox="0 0 32 30" fill="none" xmlns="http://www.w3.org/2000/svg">
<g id="kakaotalk Bi_Black" clip-path="url(#clip0_147_10)">
<path id="Vector" d="M15.9732 0.705322C7.49871 0.705322 0.628906 6.1879 0.628906 12.9509C0.628906 17.3233 3.50094 21.1599 7.82123 23.3263C7.5862 24.1468 6.31085 28.6045 6.2601 28.9547C6.2601 28.9547 6.22956 29.2178 6.3979 29.3181C6.56625 29.4185 6.76425 29.3405 6.76425 29.3405C7.247 29.2723 12.3624 25.6355 13.2478 25.0038C14.1323 25.1306 15.0431 25.1965 15.9732 25.1965C24.4475 25.1965 31.3174 19.714 31.3174 12.9509C31.3174 6.1879 24.4475 0.705322 15.9732 0.705322Z" fill="white"/>
</g>
<defs>
<clipPath id="clip0_147_10">
<rect width="32" height="30" fill="white"/>
</clipPath>
</defs>
</svg>
