<svg width="21" height="15" viewBox="0 0 21 15" fill="none" xmlns="http://www.w3.org/2000/svg">
<path id="Vector" fill-rule="evenodd" clip-rule="evenodd" d="M3.20837 2.29159H17.7917C18.068 2.29159 18.3329 2.40133 18.5283 2.59668C18.7236 2.79203 18.8334 3.05698 18.8334 3.33325V11.6666C18.8334 11.9429 18.7236 12.2078 18.5283 12.4032C18.3329 12.5985 18.068 12.7083 17.7917 12.7083H3.20837C2.93211 12.7083 2.66716 12.5985 2.4718 12.4032C2.27645 12.2078 2.16671 11.9429 2.16671 11.6666V3.33325C2.16671 3.05698 2.27645 2.79203 2.4718 2.59668C2.66716 2.40133 2.93211 2.29159 3.20837 2.29159ZM0.083374 3.33325C0.083374 2.50445 0.412614 1.70959 0.998665 1.12354C1.58472 0.537492 2.37957 0.208252 3.20837 0.208252H17.7917C18.6205 0.208252 19.4154 0.537492 20.0014 1.12354C20.5875 1.70959 20.9167 2.50445 20.9167 3.33325V11.6666C20.9167 12.4954 20.5875 13.2902 20.0014 13.8763C19.4154 14.4623 18.6205 14.7916 17.7917 14.7916H3.20837C2.37957 14.7916 1.58472 14.4623 0.998665 13.8763C0.412614 13.2902 0.083374 12.4954 0.083374 11.6666V3.33325ZM8.41671 4.37492L12.5834 7.49992L8.41671 10.6249V4.37492Z" fill="white"/>
</svg>
