<svg width="18" height="20" viewBox="0 0 18 20" fill="none" xmlns="http://www.w3.org/2000/svg">
<g clip-path="url(#clip0_33_169)">
<path d="M9.02063 11.076C5.94442 11.076 3.4502 8.60551 3.4502 5.55858C3.4502 2.51165 5.94442 0.0411682 9.02063 0.0411682C12.0553 0.0411682 14.5495 2.51165 14.5495 5.55858C14.5495 8.60551 12.0553 11.076 9.02063 11.076ZM9.02063 1.48228C6.77583 1.48228 4.90516 3.29397 4.90516 5.55858C4.90516 7.82319 6.73426 9.63488 9.02063 9.63488C11.307 9.63488 13.1361 7.82319 13.1361 5.55858C13.1361 3.29397 11.2654 1.48228 9.02063 1.48228Z" fill="black"/>
<path d="M17.0027 19.9286H15.5477V13.5877H2.45301V19.9286H0.998047V12.1465H17.0027V19.9286Z" fill="black"/>
</g>
<defs>
<clipPath id="clip0_33_169">
<rect width="18" height="19.9286" fill="white"/>
</clipPath>
</defs>
</svg>
